HIERARCHY
ROOT Hips
{
  OFFSET 40.9192 92.6879 18.85
  CHANNELS 6 Xposition Yposition Zposition Zrotation Xrotation Yrotation
  JOINT LeftUpLeg
  {
    OFFSET 8.64259 1.95398 -2.38835
    CHANNELS 3 Zrotation Xrotation Yrotation
    JOINT LeftLeg
    {
      OFFSET 43.7702 0 0
      CHANNELS 3 Zrotation Xrotation Yrotation
      JOINT LeftFoot
      {
        OFFSET 40.6238 0 0
        CHANNELS 3 Zrotation Xrotation Yrotation
        JOINT LeftToeBase
        {
          OFFSET 12.7242 0 0
          CHANNELS 3 Zrotation Xrotation Yrotation
          End Site
          {
            OFFSET 0 0 0
          }
        }
      }
    }
  }
  JOINT RightUpLeg
  {
    OFFSET -8.2249 1.95398 -2.59336
    CHANNELS 3 Zrotation Xrotation Yrotation
    JOINT RightLeg
    {
      OFFSET 43.5653 0 0
      CHANNELS 3 Zrotation Xrotation Yrotation
      JOINT RightFoot
      {
        OFFSET 40.6238 0 0
        CHANNELS 3 Zrotation Xrotation Yrotation
        JOINT RightToeBase
        {
          OFFSET 12.7242 0 0
          CHANNELS 3 Zrotation Xrotation Yrotation
          End Site
          {
            OFFSET 0 0 0
          }
        }
      }
    }
  }
  JOINT Spine
  {
    OFFSET 0.165834 0.87714 6.61349
    CHANNELS 3 Zrotation Xrotation Yrotation
    JOINT Spine1
    {
      OFFSET 7.38963 1.71661e-005 0
      CHANNELS 3 Zrotation Xrotation Yrotation
      JOINT Spine2
      {
        OFFSET 11.9445 1.14441e-005 0
        CHANNELS 3 Zrotation Xrotation Yrotation
        JOINT Spine3
        {
          OFFSET 14.7254 4.19617e-005 0
          CHANNELS 3 Zrotation Xrotation Yrotation
          JOINT Spine4
          {
            OFFSET 10.9679 0 0
            CHANNELS 3 Zrotation Xrotation Yrotation
            JOINT RightShoulder
            {
              OFFSET 2.46616 -1.6653 3.69651
              CHANNELS 3 Zrotation Xrotation Yrotation
              JOINT RightArm
              {
                OFFSET 13.0012 0 0
                CHANNELS 3 Zrotation Xrotation Yrotation
                JOINT RightForeArm
                {
                  OFFSET 28.7848 1.52588e-005 0
                  CHANNELS 3 Zrotation Xrotation Yrotation
                  JOINT RightHand
                  {
                    OFFSET 26.5688 1.52588e-005 0
                    CHANNELS 3 Zrotation Xrotation Yrotation
                    End Site
                    {
                      OFFSET 0 0 0
                    }
                  }
                }
              }
            }
            JOINT LeftShoulder
            {
              OFFSET 2.38034 -1.29275 -3.7523
              CHANNELS 3 Zrotation Xrotation Yrotation
              JOINT LeftArm
              {
                OFFSET 16.3182 6.10351e-005 0
                CHANNELS 3 Zrotation Xrotation Yrotation
                JOINT LeftForeArm
                {
                  OFFSET 27.0901 0 0
                  CHANNELS 3 Zrotation Xrotation Yrotation
                  JOINT LeftHand
                  {
                    OFFSET 24.5451 1.52588e-005 0
                    CHANNELS 3 Zrotation Xrotation Yrotation
                    End Site
                    {
                      OFFSET 0 0 0
                    }
                  }
                }
              }
            }
            JOINT Neck
            {
              OFFSET 5.0226 -0.0266342 0
              CHANNELS 3 Zrotation Xrotation Yrotation
              JOINT Head
              {
                OFFSET 6.69363 2.86102e-005 0
                CHANNELS 3 Zrotation Xrotation Yrotation
                End Site
                {
                  OFFSET 0 0 0
                }
              }
            }
          }
        }
      }
    }
  }
}
MOTION
Frames:	6
Frame Time:	0.0416667
-287.25 82.2902 -303.669 -78.7332 -12.0246 -97.6086 -170.439 22.6523 112.041 35.9211 69.0812 -75.8586 2.15694 -63.3102 6.5469 -175.939 33.5695 -67.9757 144.571 48.9412 75.3095 -59.9778 -17.0794 8.48725 96.0666 -15.3825 -6.11398 105.73 1.49741 -4.0899 1.97092 6.68427 -90.286 13.5302 3.77082 -1.05955 1.86418 3.72054 -1.22468 -20.715 3.91466 0.124442 -0.702362 3.91466 0.12444 124.717 -31.0823 -38.1414 41.7551 -0.957861 24.5296 -26.2309 -8.61773 -75.876 -28.0491 2.60917 -13.8526 -121.763 -11.4292 1.89135 -44.1959 32.6471 8.66195 104.665 20.8777 -111.99 -46.2653 6.03577 -19.4986 42.0586 -1.84871 65.8523 -49.0502 -13.3096 -57.7021 
-283.641 85.5245 -301.112 -83.4462 -0.575816 -98.2595 173.993 14.9855 94.8219 -51.5841 41.6918 11.6202 15.2827 -31.4883 -15.2682 151.678 36.769 -55.8395 156.683 43.2936 73.8435 -51.3133 -14.81 6.71098 87.0931 -11.7931 -5.85424 15.79 1.06882 -11.721 -1.71065 7.78252 -90.8443 11.2812 -3.79568 -1.27701 -0.383528 -3.84827 -1.10852 -22.9554 -3.23611 -2.35947 -2.94277 -3.23612 -2.35948 107.056 -23.0271 -70.7838 53.1336 -12.2121 26.3774 -14.428 -9.11274 -76.6276 -25.0509 -0.727113 -1.4842 -123.136 -35.8655 23.163 -20.5909 8.57634 10.3224 96.6808 -11.0966 -82.7057 -40.4427 21.0679 -51.0896 56.9046 14.9352 38.1481 -34.7664 -0.562182 -40.8168 
-279.008 89.6672 -295.809 -85.8716 18.7965 -92.5894 175.684 9.02556 93.0995 -48.5586 26.7064 8.19705 32.0354 -16.7175 -15.77 115.52 42.1633 -31.4636 167.891 35.2587 81.4337 -33.9916 -15.7507 3.49166 74.496 -6.0775 -4.29393 6.50274 0.991227 -9.91972 -2.0996 8.35299 -90.3279 10.1673 -4.33302 -0.284413 -1.49661 -4.3413 -0.0930958 -24.0826 -4.04703 -1.57551 -4.06998 -4.04703 -1.57551 99.0923 -27.5999 -88.462 53.1006 -14.4233 29.2961 -14.0058 -9.42163 -76.8942 -24.3645 -0.28756 -3.26585 -104.038 -40.2069 53.5728 -22.8021 -1.33555 13.6121 17.1758 -6.4066 -97.6834 20.7146 -3.35263 -13.4535 44.8677 4.7865 15.9428 -22.1022 0.205298 -23.7083 
-272.975 91.9791 -288.845 -86.2837 41.3031 -89.9935 -176.56 8.29889 91.0721 -46.1005 22.7066 2.58052 52.1137 -6.43675 -4.09503 64.1427 27.8936 1.43416 178.713 30.2022 87.6969 -28.5635 -20.2397 -2.15366 73.3056 -6.82784 -4.34433 -12.5066 -2.10114 -0.157967 -0.217971 8.03743 -89.8966 10.8039 -0.386372 0.233935 -0.867381 -0.375687 0.250699 -23.4007 -0.438819 0.107016 -3.388 -0.438829 0.107009 96.4312 -36.1498 -92.7751 46.4111 -15.591 31.9789 -12.375 -8.14426 -79.3996 -24.8429 -0.155845 -3.98282 -97.0029 -41.1465 65.2209 -26.2436 5.13655 16.635 12.4717 -4.9297 -102.595 31.8953 1.10269 -0.18011 24.4895 1.74933 9.79221 -5.10653 -1.42921 -12.1349 
-264.812 91.6673 -280.289 -89.4284 47.7368 -87.5974 -174.895 11.3863 89.0444 -47.3071 17.0229 0.847275 66.3207 5.7244 4.49501 44.0992 13.0743 8.98825 -177.976 25.6099 88.786 -41.3714 -11.6011 -4.72549 78.3819 -9.76549 -4.72563 -6.04522 -4.08089 5.78244 0.338726 7.90911 -89.6989 11.0537 0.813936 0.520885 -0.6171 0.836106 0.48454 -23.1527 0.619762 0.741421 -3.1401 0.619786 0.741429 95.6221 -44.7132 -92.8779 35.4547 -19.0861 25.7494 -11.0789 -8.46671 -80.7301 -24.8099 -0.385651 -3.01159 -94.5334 -43.27 69.9243 -28.8293 11.5342 19.2551 13.8063 -5.2137 -95.7023 30.3752 0.943548 -0.851488 13.6445 2.63028 1.74236 2.97978 2.05667 -1.5668 
-256.678 90.6573 -272.15 -91.5437 49.0316 -86.2355 -173.6 19.3116 88.3959 -51.0864 15.0967 -0.388596 65.6684 7.4166 6.36171 43.5972 12.3942 7.06662 -179.088 23.3337 89.6431 -59.9793 3.7638 -4.90392 69.6585 -6.0972 -3.23801 37.5101 0.736797 -10.6809 0.460943 7.88591 -89.5425 11.0974 1.12997 0.802384 -0.573306 1.16417 0.751867 -23.1087 0.836572 1.10488 -3.09603 0.836578 1.10487 93.5313 -49.2511 -95.5202 27.5408 -20.2796 15.2071 -9.20027 -7.97032 -82.531 -24.9139 -0.565584 -2.26713 -91.9468 -44.0959 74.2802 -32.7227 15.9019 20.2742 11.7211 -4.82744 -83.2431 31.3239 1.61217 1.32853 15.2927 3.08762 -3.56065 -1.85913 3.9127 1.01015 
